<mxfile host="app.diagrams.net" modified="2024-05-15T21:30:04.100Z" agent="Mozilla/5.0 (Windows NT 10.0; Win64; x64) AppleWebKit/537.36 (KHTML, like Gecko) Chrome/124.0.0.0 Safari/537.36" etag="5ed58qHZeNVIwY9doh73" version="24.3.1" type="device">
  <diagram name="Page-1" id="uKobC-ceL4IqNugWjQVv">
    <mxGraphModel dx="4350" dy="3000" grid="1" gridSize="10" guides="1" tooltips="1" connect="1" arrows="1" fold="1" page="1" pageScale="1" pageWidth="850" pageHeight="1100" math="0" shadow="0">
      <root>
        <mxCell id="0" />
        <mxCell id="1" parent="0" />
        <mxCell id="WpBjHT4OOS6U3vbseubN-1" value="" style="rounded=0;whiteSpace=wrap;html=1;" vertex="1" parent="1">
          <mxGeometry x="310" y="60" width="2110" height="640" as="geometry" />
        </mxCell>
        <mxCell id="WpBjHT4OOS6U3vbseubN-10" style="edgeStyle=orthogonalEdgeStyle;rounded=0;orthogonalLoop=1;jettySize=auto;html=1;entryX=0;entryY=0.5;entryDx=0;entryDy=0;" edge="1" parent="1" source="WpBjHT4OOS6U3vbseubN-2" target="WpBjHT4OOS6U3vbseubN-4">
          <mxGeometry relative="1" as="geometry" />
        </mxCell>
        <mxCell id="WpBjHT4OOS6U3vbseubN-2" value="Preprocessing" style="rounded=0;whiteSpace=wrap;html=1;" vertex="1" parent="1">
          <mxGeometry x="600" y="315" width="220" height="100" as="geometry" />
        </mxCell>
        <mxCell id="WpBjHT4OOS6U3vbseubN-14" style="edgeStyle=orthogonalEdgeStyle;rounded=0;orthogonalLoop=1;jettySize=auto;html=1;entryX=0.5;entryY=1;entryDx=0;entryDy=0;" edge="1" parent="1" source="WpBjHT4OOS6U3vbseubN-3" target="WpBjHT4OOS6U3vbseubN-7">
          <mxGeometry relative="1" as="geometry" />
        </mxCell>
        <mxCell id="WpBjHT4OOS6U3vbseubN-3" value="Feature extractor" style="rounded=0;whiteSpace=wrap;html=1;" vertex="1" parent="1">
          <mxGeometry x="910" y="505" width="220" height="90" as="geometry" />
        </mxCell>
        <mxCell id="WpBjHT4OOS6U3vbseubN-11" style="edgeStyle=orthogonalEdgeStyle;rounded=0;orthogonalLoop=1;jettySize=auto;html=1;entryX=0;entryY=0.5;entryDx=0;entryDy=0;" edge="1" parent="1" source="WpBjHT4OOS6U3vbseubN-4" target="WpBjHT4OOS6U3vbseubN-6">
          <mxGeometry relative="1" as="geometry" />
        </mxCell>
        <mxCell id="WpBjHT4OOS6U3vbseubN-4" value="intention" style="rounded=0;whiteSpace=wrap;html=1;" vertex="1" parent="1">
          <mxGeometry x="900" y="315" width="200" height="100" as="geometry" />
        </mxCell>
        <mxCell id="WpBjHT4OOS6U3vbseubN-9" style="edgeStyle=orthogonalEdgeStyle;rounded=0;orthogonalLoop=1;jettySize=auto;html=1;entryX=0;entryY=0.5;entryDx=0;entryDy=0;" edge="1" parent="1" source="WpBjHT4OOS6U3vbseubN-5" target="WpBjHT4OOS6U3vbseubN-2">
          <mxGeometry relative="1" as="geometry" />
        </mxCell>
        <mxCell id="WpBjHT4OOS6U3vbseubN-5" value="Coreference" style="rounded=0;whiteSpace=wrap;html=1;" vertex="1" parent="1">
          <mxGeometry x="350" y="310" width="190" height="110" as="geometry" />
        </mxCell>
        <mxCell id="WpBjHT4OOS6U3vbseubN-12" style="edgeStyle=orthogonalEdgeStyle;rounded=0;orthogonalLoop=1;jettySize=auto;html=1;entryX=0;entryY=0.5;entryDx=0;entryDy=0;" edge="1" parent="1" source="WpBjHT4OOS6U3vbseubN-6" target="WpBjHT4OOS6U3vbseubN-7">
          <mxGeometry relative="1" as="geometry" />
        </mxCell>
        <mxCell id="WpBjHT4OOS6U3vbseubN-6" value="Slot filling" style="rounded=0;whiteSpace=wrap;html=1;" vertex="1" parent="1">
          <mxGeometry x="1175" y="315" width="200" height="100" as="geometry" />
        </mxCell>
        <mxCell id="WpBjHT4OOS6U3vbseubN-13" style="edgeStyle=orthogonalEdgeStyle;rounded=0;orthogonalLoop=1;jettySize=auto;html=1;entryX=0;entryY=0.5;entryDx=0;entryDy=0;" edge="1" parent="1" source="WpBjHT4OOS6U3vbseubN-7" target="WpBjHT4OOS6U3vbseubN-8">
          <mxGeometry relative="1" as="geometry" />
        </mxCell>
        <mxCell id="WpBjHT4OOS6U3vbseubN-7" value="Feature resolution" style="rounded=0;whiteSpace=wrap;html=1;" vertex="1" parent="1">
          <mxGeometry x="1450" y="320" width="200" height="90" as="geometry" />
        </mxCell>
        <mxCell id="WpBjHT4OOS6U3vbseubN-23" style="edgeStyle=orthogonalEdgeStyle;rounded=0;orthogonalLoop=1;jettySize=auto;html=1;entryX=0.5;entryY=0;entryDx=0;entryDy=0;" edge="1" parent="1" source="WpBjHT4OOS6U3vbseubN-8" target="WpBjHT4OOS6U3vbseubN-7">
          <mxGeometry relative="1" as="geometry">
            <Array as="points">
              <mxPoint x="1825" y="210" />
              <mxPoint x="1550" y="210" />
            </Array>
          </mxGeometry>
        </mxCell>
        <mxCell id="WpBjHT4OOS6U3vbseubN-27" value="extract again after every action" style="edgeLabel;html=1;align=center;verticalAlign=middle;resizable=0;points=[];" vertex="1" connectable="0" parent="WpBjHT4OOS6U3vbseubN-23">
          <mxGeometry x="0.0167" y="5" relative="1" as="geometry">
            <mxPoint x="-1" as="offset" />
          </mxGeometry>
        </mxCell>
        <mxCell id="WpBjHT4OOS6U3vbseubN-24" style="edgeStyle=orthogonalEdgeStyle;rounded=0;orthogonalLoop=1;jettySize=auto;html=1;entryX=0;entryY=0.5;entryDx=0;entryDy=0;" edge="1" parent="1" source="WpBjHT4OOS6U3vbseubN-8" target="WpBjHT4OOS6U3vbseubN-21">
          <mxGeometry relative="1" as="geometry" />
        </mxCell>
        <mxCell id="WpBjHT4OOS6U3vbseubN-8" value="execution" style="rounded=0;whiteSpace=wrap;html=1;" vertex="1" parent="1">
          <mxGeometry x="1710" y="305" width="230" height="120" as="geometry" />
        </mxCell>
        <mxCell id="WpBjHT4OOS6U3vbseubN-17" style="edgeStyle=orthogonalEdgeStyle;rounded=0;orthogonalLoop=1;jettySize=auto;html=1;entryX=0;entryY=0.5;entryDx=0;entryDy=0;" edge="1" parent="1" source="WpBjHT4OOS6U3vbseubN-16" target="WpBjHT4OOS6U3vbseubN-5">
          <mxGeometry relative="1" as="geometry" />
        </mxCell>
        <mxCell id="WpBjHT4OOS6U3vbseubN-20" value="prompt" style="edgeLabel;html=1;align=center;verticalAlign=middle;resizable=0;points=[];" vertex="1" connectable="0" parent="WpBjHT4OOS6U3vbseubN-17">
          <mxGeometry x="0.3111" y="-4" relative="1" as="geometry">
            <mxPoint as="offset" />
          </mxGeometry>
        </mxCell>
        <mxCell id="WpBjHT4OOS6U3vbseubN-18" style="edgeStyle=orthogonalEdgeStyle;rounded=0;orthogonalLoop=1;jettySize=auto;html=1;entryX=0;entryY=0.5;entryDx=0;entryDy=0;" edge="1" parent="1" source="WpBjHT4OOS6U3vbseubN-16" target="WpBjHT4OOS6U3vbseubN-3">
          <mxGeometry relative="1" as="geometry">
            <Array as="points">
              <mxPoint y="550" />
            </Array>
          </mxGeometry>
        </mxCell>
        <mxCell id="WpBjHT4OOS6U3vbseubN-19" value="sheets" style="edgeLabel;html=1;align=center;verticalAlign=middle;resizable=0;points=[];" vertex="1" connectable="0" parent="WpBjHT4OOS6U3vbseubN-18">
          <mxGeometry x="-0.2417" relative="1" as="geometry">
            <mxPoint as="offset" />
          </mxGeometry>
        </mxCell>
        <mxCell id="WpBjHT4OOS6U3vbseubN-16" value="User" style="ellipse;whiteSpace=wrap;html=1;" vertex="1" parent="1">
          <mxGeometry x="-60" y="325" width="120" height="80" as="geometry" />
        </mxCell>
        <mxCell id="WpBjHT4OOS6U3vbseubN-26" style="edgeStyle=orthogonalEdgeStyle;rounded=0;orthogonalLoop=1;jettySize=auto;html=1;entryX=0.5;entryY=1;entryDx=0;entryDy=0;" edge="1" parent="1" source="WpBjHT4OOS6U3vbseubN-21" target="WpBjHT4OOS6U3vbseubN-3">
          <mxGeometry relative="1" as="geometry">
            <Array as="points">
              <mxPoint x="2165" y="615" />
              <mxPoint x="1020" y="615" />
            </Array>
          </mxGeometry>
        </mxCell>
        <mxCell id="WpBjHT4OOS6U3vbseubN-28" value="rerty 3 times until stopping" style="edgeLabel;html=1;align=center;verticalAlign=middle;resizable=0;points=[];" vertex="1" connectable="0" parent="WpBjHT4OOS6U3vbseubN-26">
          <mxGeometry x="0.1756" y="5" relative="1" as="geometry">
            <mxPoint x="-1" as="offset" />
          </mxGeometry>
        </mxCell>
        <mxCell id="WpBjHT4OOS6U3vbseubN-35" value="No" style="edgeLabel;html=1;align=center;verticalAlign=middle;resizable=0;points=[];" vertex="1" connectable="0" parent="WpBjHT4OOS6U3vbseubN-26">
          <mxGeometry x="-0.8921" relative="1" as="geometry">
            <mxPoint as="offset" />
          </mxGeometry>
        </mxCell>
        <mxCell id="WpBjHT4OOS6U3vbseubN-31" style="edgeStyle=orthogonalEdgeStyle;rounded=0;orthogonalLoop=1;jettySize=auto;html=1;exitX=1;exitY=0.5;exitDx=0;exitDy=0;entryX=0.5;entryY=0;entryDx=0;entryDy=0;" edge="1" parent="1" source="WpBjHT4OOS6U3vbseubN-21" target="WpBjHT4OOS6U3vbseubN-30">
          <mxGeometry relative="1" as="geometry" />
        </mxCell>
        <mxCell id="WpBjHT4OOS6U3vbseubN-33" style="edgeStyle=orthogonalEdgeStyle;rounded=0;orthogonalLoop=1;jettySize=auto;html=1;entryX=0.5;entryY=0;entryDx=0;entryDy=0;" edge="1" parent="1" source="WpBjHT4OOS6U3vbseubN-21" target="WpBjHT4OOS6U3vbseubN-32">
          <mxGeometry relative="1" as="geometry" />
        </mxCell>
        <mxCell id="WpBjHT4OOS6U3vbseubN-34" value="yes" style="edgeLabel;html=1;align=center;verticalAlign=middle;resizable=0;points=[];" vertex="1" connectable="0" parent="WpBjHT4OOS6U3vbseubN-33">
          <mxGeometry x="-0.7235" relative="1" as="geometry">
            <mxPoint as="offset" />
          </mxGeometry>
        </mxCell>
        <mxCell id="WpBjHT4OOS6U3vbseubN-37" style="edgeStyle=orthogonalEdgeStyle;rounded=0;orthogonalLoop=1;jettySize=auto;html=1;entryX=1;entryY=0.5;entryDx=0;entryDy=0;" edge="1" parent="1" source="WpBjHT4OOS6U3vbseubN-21" target="WpBjHT4OOS6U3vbseubN-36">
          <mxGeometry relative="1" as="geometry">
            <mxPoint x="2550" y="-160" as="targetPoint" />
            <Array as="points">
              <mxPoint x="2730" y="365" />
              <mxPoint x="2730" y="-30" />
            </Array>
          </mxGeometry>
        </mxCell>
        <mxCell id="WpBjHT4OOS6U3vbseubN-21" value="Error checking" style="rhombus;whiteSpace=wrap;html=1;" vertex="1" parent="1">
          <mxGeometry x="2070" y="315" width="190" height="100" as="geometry" />
        </mxCell>
        <mxCell id="WpBjHT4OOS6U3vbseubN-30" value="steps" style="ellipse;whiteSpace=wrap;html=1;" vertex="1" parent="1">
          <mxGeometry x="2490" y="570" width="120" height="80" as="geometry" />
        </mxCell>
        <mxCell id="WpBjHT4OOS6U3vbseubN-32" value="sheets" style="ellipse;whiteSpace=wrap;html=1;" vertex="1" parent="1">
          <mxGeometry x="2670" y="570" width="120" height="80" as="geometry" />
        </mxCell>
        <mxCell id="WpBjHT4OOS6U3vbseubN-39" style="edgeStyle=orthogonalEdgeStyle;rounded=0;orthogonalLoop=1;jettySize=auto;html=1;entryX=1;entryY=0.5;entryDx=0;entryDy=0;" edge="1" parent="1" source="WpBjHT4OOS6U3vbseubN-36" target="WpBjHT4OOS6U3vbseubN-38">
          <mxGeometry relative="1" as="geometry" />
        </mxCell>
        <mxCell id="WpBjHT4OOS6U3vbseubN-36" value="self instruct" style="rounded=1;whiteSpace=wrap;html=1;" vertex="1" parent="1">
          <mxGeometry x="1570" y="-80" width="290" height="100" as="geometry" />
        </mxCell>
        <mxCell id="WpBjHT4OOS6U3vbseubN-40" style="edgeStyle=orthogonalEdgeStyle;rounded=0;orthogonalLoop=1;jettySize=auto;html=1;entryX=0.5;entryY=0;entryDx=0;entryDy=0;" edge="1" parent="1" source="WpBjHT4OOS6U3vbseubN-38" target="WpBjHT4OOS6U3vbseubN-16">
          <mxGeometry relative="1" as="geometry" />
        </mxCell>
        <mxCell id="WpBjHT4OOS6U3vbseubN-38" value="Database" style="rounded=1;whiteSpace=wrap;html=1;" vertex="1" parent="1">
          <mxGeometry x="520" y="-90" width="320" height="120" as="geometry" />
        </mxCell>
        <mxCell id="WpBjHT4OOS6U3vbseubN-41" value="" style="whiteSpace=wrap;html=1;aspect=fixed;" vertex="1" parent="1">
          <mxGeometry x="2850" y="120" width="130" height="130" as="geometry" />
        </mxCell>
      </root>
    </mxGraphModel>
  </diagram>
</mxfile>
